<svg width="57.761719" height="24.152710" viewBox="0 0 57.7617 24.1527" fill="none" xmlns="http://www.w3.org/2000/svg" xmlns:xlink="http://www.w3.org/1999/xlink">
	<desc>
			Created with Pixso.
	</desc>
	<defs/>
	<path id="Vector" d="M10.76 3.11C11.42 2.26 11.9 1.13 11.75 0C10.76 0.04 9.58 0.66 8.88 1.46C8.26 2.16 7.7 3.34 7.84 4.43C8.97 4.57 10.06 3.96 10.76 3.11ZM11.75 4.71C10.15 4.62 8.78 5.61 8.03 5.61C7.27 5.61 6.09 4.76 4.82 4.76C3.17 4.81 1.66 5.7 0.81 7.21C-0.89 10.18 0.34 14.57 2.04 16.98C2.84 18.16 3.83 19.48 5.1 19.43C6.33 19.38 6.8 18.63 8.26 18.63C9.73 18.63 10.15 19.43 11.47 19.38C12.79 19.34 13.64 18.2 14.44 16.98C15.39 15.61 15.76 14.29 15.76 14.24C15.72 14.19 13.17 13.25 13.17 10.33C13.12 7.87 15.15 6.69 15.24 6.65C14.16 4.95 12.37 4.76 11.75 4.71Z" fill="#FFFFFF" fill-opacity="1.000000" fill-rule="nonzero"/>
	<path id="Vector" d="M26.62 1.36C30.11 1.36 32.52 3.77 32.52 7.21C32.52 10.7 30.07 13.11 26.53 13.11L22.71 13.11L22.71 19.19L19.92 19.19L19.92 1.36L26.62 1.36ZM22.71 10.8L25.87 10.8C28.27 10.8 29.64 9.48 29.64 7.26C29.64 5 28.27 3.72 25.87 3.72L22.66 3.72L22.66 10.8L22.71 10.8ZM33.23 15.56C33.23 13.3 34.97 11.88 38.09 11.69L41.67 11.51L41.67 10.51C41.67 9.05 40.68 8.2 39.08 8.2C37.52 8.2 36.58 8.96 36.34 10.09L33.79 10.09C33.93 7.73 35.96 5.99 39.17 5.99C42.33 5.99 44.36 7.64 44.36 10.28L44.36 19.24L41.81 19.24L41.81 17.12L41.76 17.12C41.01 18.58 39.36 19.48 37.66 19.48C35.02 19.48 33.23 17.87 33.23 15.56ZM41.67 14.38L41.67 13.35L38.46 13.53C36.86 13.63 35.96 14.34 35.96 15.47C35.96 16.6 36.91 17.35 38.32 17.35C40.21 17.35 41.67 16.08 41.67 14.38ZM46.72 24.05L46.72 21.88C46.91 21.93 47.38 21.93 47.57 21.93C48.79 21.93 49.45 21.41 49.88 20.09C49.88 20.04 50.12 19.29 50.12 19.29L45.4 6.27L48.28 6.27L51.58 16.88L51.62 16.88L54.93 6.27L57.76 6.27L52.9 20C51.77 23.16 50.49 24.15 47.8 24.15C47.61 24.1 46.95 24.1 46.72 24.05Z" fill="#FFFFFF" fill-opacity="1.000000" fill-rule="nonzero"/>
</svg>
