<svg width="95.000000" height="53.000000" viewBox="0 0 95 53" fill="none" xmlns="http://www.w3.org/2000/svg" xmlns:xlink="http://www.w3.org/1999/xlink">
	<desc>
			Created with Pixso.
	</desc>
	<defs/>
	<path id="Union" d="M68.26 52.56C82.63 52.56 94.29 40.79 94.29 26.28C94.29 11.76 82.63 0 68.26 0C53.88 0 42.23 11.76 42.23 26.28C42.23 40.79 53.88 52.56 68.26 52.56ZM32.39 27.74Q28.27 23.79 20.31 23.36L34.63 5.18L34.63 1.46L2.09 1.46L2.09 6.13L27.98 6.13L13.95 23.87L13.95 27.74L17.57 27.74C22.15 27.74 25.57 28.64 27.83 30.44C30.1 32.24 31.23 34.72 31.23 37.88C31.23 41.1 30.1 43.63 27.83 45.48C25.57 47.28 22.36 48.18 18.22 48.18C15.04 48.18 12.05 47.64 9.25 46.57C6.45 45.45 4.21 44.02 2.53 42.26L0 46.42C1.97 48.42 4.57 50.03 7.8 51.24C11.08 52.41 14.55 53 18.22 53C22.17 53 25.52 52.34 28.27 51.02C31.02 49.71 33.09 47.93 34.49 45.69C35.88 43.41 36.58 40.8 36.58 37.88C36.58 33.7 35.18 30.32 32.39 27.74ZM68.26 48.18C80.24 48.18 89.95 38.37 89.95 26.28C89.95 14.18 80.24 4.38 68.26 4.38C56.28 4.38 46.56 14.18 46.56 26.28C46.56 38.37 56.28 48.18 68.26 48.18Z" fill="#0F0F11" fill-opacity="1.000000" fill-rule="evenodd"/>
</svg>
