<svg width="95.000000" height="52.000000" viewBox="0 0 95 52" fill="none" xmlns="http://www.w3.org/2000/svg" xmlns:xlink="http://www.w3.org/1999/xlink">
	<desc>
			Created with Pixso.
	</desc>
	<defs/>
	<path id="Union" d="M67.97 52C82.35 52 94.01 40.35 94.01 26C94.01 11.64 82.35 0 67.97 0C53.59 0 41.94 11.64 41.94 26C41.94 40.35 53.59 52 67.97 52ZM37.02 51.27L37.02 46.65L9.18 46.65L26.39 29.75Q31.24 25.06 32.97 21.44C34.13 19.04 34.71 16.53 34.71 13.93C34.71 9.7 33.19 6.37 30.15 3.97Q25.67 0.28 17.93 0.28Q12.14 0.28 7.52 2.16Q3.67 3.75 0.96 6.46Q0.46 6.96 0 7.51L3.68 10.68Q4.94 9.24 6.46 8.17Q10.88 5.05 17.5 5.05Q23.21 5.05 26.25 7.58Q27.31 8.42 28.01 9.49Q29.36 11.56 29.36 14.51Q29.36 17.4 27.91 20.29Q26.54 23.11 22.56 27.01L1.51 47.59L1.51 51.27L37.02 51.27ZM67.97 47.66C79.95 47.66 89.67 37.96 89.67 26C89.67 14.03 79.95 4.33 67.97 4.33C55.99 4.33 46.28 14.03 46.28 26C46.28 37.96 55.99 47.66 67.97 47.66Z" fill="#0F0F11" fill-opacity="1.000000" fill-rule="evenodd"/>
</svg>
