<svg width="56.000000" height="56.000000" viewBox="0 0 56 56" fill="none" xmlns="http://www.w3.org/2000/svg" xmlns:xlink="http://www.w3.org/1999/xlink">
	<desc>
			Created with Pixso.
	</desc>
	<defs/>
	<path id="Union" d="M28 0C12.5361 0 0 12.536 0 28C0 43.464 12.5361 56 28 56C43.4639 56 56 43.464 56 28C56 12.536 43.4639 0 28 0ZM28 1.12C13.1548 1.12 1.12012 13.1546 1.12012 28C1.12012 42.8454 13.1548 54.88 28 54.88C42.8452 54.88 54.8799 42.8454 54.8799 28C54.8799 13.1546 42.8452 1.12 28 1.12ZM43.1196 27.9932L34.7334 19.6L33.2485 21.0861L39.1138 26.9559L14.2798 26.9559L14.2798 29.0576L39.1001 29.0576L33.249 34.9139L34.7339 36.4L43.1201 28.0068L43.1133 27.9999L43.1196 27.9932Z" clip-rule="evenodd" fill="#FFFFFF" fill-opacity="1.000000" fill-rule="evenodd"/>
</svg>
