<svg width="56.000000" height="53.000000" viewBox="0 0 56 53" fill="none" xmlns="http://www.w3.org/2000/svg" xmlns:xlink="http://www.w3.org/1999/xlink">
	<desc>
			Created with Pixso.
	</desc>
	<defs/>
	<path id="Union" d="M12.74 25.31C10.44 25.31 8.29 24.74 6.29 23.61C4.34 22.42 2.79 20.87 1.64 18.94Q0.71 17.26 0.3 15.46L0.3 15.46Q0 14.09 0 12.65C0 10.43 0.54 8.36 1.64 6.43C2.79 4.46 4.34 2.91 6.29 1.77C8.29 0.59 10.44 0 12.74 0C15.04 0 17.16 0.59 19.11 1.77C21.06 2.91 22.58 4.46 23.68 6.43C24.83 8.36 25.41 10.43 25.41 12.65C25.41 14.87 24.83 16.97 23.68 18.94C22.58 20.87 21.06 22.42 19.11 23.61C17.16 24.74 15.04 25.31 12.74 25.31ZM9.29 49.74L42.65 0.66L46.62 3.33L13.34 52.33L9.29 49.74ZM12.74 20.72C14.89 20.72 16.69 19.96 18.14 18.43Q18.99 17.5 19.51 16.41Q20.31 14.72 20.31 12.65C20.31 10.33 19.59 8.41 18.14 6.88C16.69 5.35 14.89 4.58 12.74 4.58C10.59 4.58 8.77 5.35 7.27 6.88C5.82 8.41 5.09 10.33 5.09 12.65C5.09 14.92 5.82 16.85 7.27 18.43C8.77 19.96 10.59 20.72 12.74 20.72ZM36.88 51.29C38.88 52.43 41.03 53 43.33 53C45.62 53 47.75 52.43 49.7 51.29C51.65 50.11 53.17 48.55 54.27 46.63C55.42 44.66 56 42.56 56 40.34C56 38.12 55.42 36.04 54.27 34.12C53.17 32.15 51.65 30.59 49.7 29.46C47.75 28.27 45.62 27.68 43.33 27.68C41.03 27.68 38.88 28.27 36.88 29.46C34.93 30.59 33.38 32.15 32.23 34.12C31.13 36.04 30.58 38.12 30.58 40.34C30.58 42.56 31.13 44.66 32.23 46.63C33.38 48.55 34.93 50.11 36.88 51.29ZM48.72 46.11C47.27 47.64 45.47 48.41 43.33 48.41C41.18 48.41 39.35 47.64 37.85 46.11C36.4 44.53 35.68 42.61 35.68 40.34C35.68 38.02 36.4 36.09 37.85 34.56C39.35 33.03 41.18 32.27 43.33 32.27C45.47 32.27 47.27 33.03 48.72 34.56C50.17 36.09 50.9 38.02 50.9 40.34C50.9 42.61 50.17 44.53 48.72 46.11Z" fill="#0F0F11" fill-opacity="1.000000" fill-rule="evenodd"/>
</svg>
